<svg xmlns="http://www.w3.org/2000/svg" viewBox="0 0 249.48 188.23"><defs><style>.cls-1,.cls-3,.cls-5{fill:#fff;}.cls-2,.cls-4{fill:none;}.cls-2,.cls-3,.cls-4,.cls-5{stroke:#fff;}.cls-2{stroke-width:1.55px;}.cls-3{stroke-width:2px;}.cls-4,.cls-5{stroke-miterlimit:10;}.cls-5{stroke-width:0.75px;}</style></defs><g id="Layer_2" data-name="Layer 2"><g id="Layer_1-2" data-name="Layer 1"><g id="logo"><path class="cls-1" d="M172,20.57,159.17,58.63h-.3L148.49,20.57H136.66L153.79,71l-3.45,9.82H161l22.24-60.2Z"/><path class="cls-2" d="M172,20.57,159.17,58.63h-.3L148.49,20.57H136.66L153.79,71l-3.45,9.82H161l22.24-60.2Z"/><path class="cls-3" d="M53.76,29.67a21.2,21.2,0,0,1,5-5.26,9.82,9.82,0,0,1,5.66-1.64q7.49,0,10.62,6.59t3.14,21.47q0,16.8-3.3,22.9a10.94,10.94,0,0,1-10.33,6.12,9.32,9.32,0,0,1-5.18-1.36A24.39,24.39,0,0,1,54,72.89h-.26v30.5H43.27V23.59H53.5v6.08ZM60,70.93q3.78,0,5.38-4.35T67,52.48q0-11.34-1.47-16.13T60,31.56c-2.47,0-4.16,1.33-5.05,4S53.63,42.66,53.63,49q0,11.79,1.06,16.86T60,70.93Z"/><path class="cls-3" d="M85.25,6.7a5.49,5.49,0,0,1,1.69-4,5.69,5.69,0,0,1,8.13,0,5.5,5.5,0,0,1,1.7,4,5.43,5.43,0,0,1-1.7,4,5.79,5.79,0,0,1-8.16,0A5.47,5.47,0,0,1,85.25,6.7Zm.51,16.89H96.12V78.9H85.76Z"/><path class="cls-3" d="M129,77.19a22.2,22.2,0,0,1-9.46,2.47q-8.58,0-12.55-7t-4-21.9q0-15.88,5-22t11.77-6.14a30,30,0,0,1,9,2v8.8A15.72,15.72,0,0,0,123,31.75q-4.55,0-6.59,4.85c-1.37,3.22-2.05,8.3-2.05,15.21q0,18.8,8.26,18.8a15.83,15.83,0,0,0,6.39-2Z"/><path class="cls-1" d="M19.46,111.11h-18v76.62h11V167.78q9-.17,13.66-1.86t7.75-8.25Q37,151.13,37,139.72,37,111.12,19.46,111.11Zm3,42.64q-3,3.48-10,3.49V121.49q7.75,0,10.37,3.8t2.62,14.43Q25.47,150.26,22.47,153.75Z"/><path class="cls-4" d="M19.46,111.11h-18v76.62h11V167.78q9-.17,13.66-1.86t7.75-8.25Q37,151.13,37,139.72,37,111.12,19.46,111.11Zm3,42.64q-3,3.48-10,3.49V121.49q7.75,0,10.37,3.8t2.62,14.43Q25.47,150.26,22.47,153.75Z"/><path class="cls-5" d="M33.49,20.21q-5.9-3.37-10.57-3.37a10.53,10.53,0,0,0-8,3.6,12.35,12.35,0,0,0-3.32,8.7,17.64,17.64,0,0,0,2,7.68q2,4.08,8.93,13.07A128.9,128.9,0,0,1,33.1,65.49a30.63,30.63,0,0,1,3.67,15.16q0,10.65-6,17.3t-15.64,6.64q-5.33,0-13-3.38V89.74a1.68,1.68,0,0,1,.42.22A31.06,31.06,0,0,0,7,92.48a14.66,14.66,0,0,0,6.58,1.69,11.13,11.13,0,0,0,8.64-3.75,13.82,13.82,0,0,0,3.4-9.61,16.54,16.54,0,0,0-1.73-7.5,65.82,65.82,0,0,0-6.27-9.38l-8-10.6A56.77,56.77,0,0,1,2.62,42.07,30,30,0,0,1,.38,29.91Q.38,19.47,6,13A18.57,18.57,0,0,1,20.75,6.42,27.29,27.29,0,0,1,33.49,9.79Z"/><path class="cls-3" d="M60.75,109.68a15.7,15.7,0,0,1,12.86,6q4.88,6,4.87,23.29,0,16.2-5.09,22a16.07,16.07,0,0,1-12.51,5.75q-9.27,0-13.75-6.89t-4.48-21.2q0-17.53,5.12-23.23a16.43,16.43,0,0,1,12.73-5.69Zm6.59,31.89q0-14.11-1.34-18.73t-5.37-4.62a5.2,5.2,0,0,0-5.25,3.61Q54,125.43,54,134q0,16.77,1.57,20.5t5.21,3.74A5.16,5.16,0,0,0,66,154.51Q67.35,150.75,67.34,141.57Z"/><path class="cls-3" d="M118.82,148.47q0,9.67-3.9,13.95t-12.86,4.27q-9,0-13-4.2T85,149V110.44H95.41V149.1q0,9.18,6.65,9.18,3.52,0,5-2.34t1.44-7.79V110.44h10.36Z"/><path class="cls-3" d="M150.21,82.47h10.43v83.46h-10.3v-7.4h-.25q-3.78,8.16-10.75,8.16a11.78,11.78,0,0,1-7.52-2.72,14.19,14.19,0,0,1-4.77-7.59q-1.33-4.87-1.34-16.26,0-13,1.15-18.58a16.28,16.28,0,0,1,4.42-8.73,11.48,11.48,0,0,1,8.31-3.13q6.6,0,10.37,7.4h.25Zm.13,54.92q0-10.24-1.31-14.52t-5.28-4.27c-2.64,0-4.46,1.5-5.44,4.49s-1.47,8-1.47,14.87q0,10.77,1.38,15.35t5.28,4.59q3.84,0,5.34-4.78T150.34,137.39Z"/><path class="cls-3" d="M191.52,118.79q-7.23.19-10.3,2.72t-3.07,11.27v33.15H167.53v-55.3h10.62v8.16h.25q4.62-9,12.42-9l.7.13Z"/><path class="cls-3" d="M196.49,93.73a5.76,5.76,0,1,1,9.82,4,5.79,5.79,0,0,1-8.16,0A5.51,5.51,0,0,1,196.49,93.73Zm.51,16.9h10.36v55.3H197Z"/><path class="cls-3" d="M225.19,110.44v5.31h.25a12.46,12.46,0,0,1,10.88-6.07q12.15,0,12.16,13.1v43.15H238.11V125.75q0-8.16-6.52-8.16a5.81,5.81,0,0,0-4.77,2.18,9.3,9.3,0,0,0-1.76,6v40.18H214.57V110.44Z"/></g></g></g></svg>